<svg width="34" height="30" viewBox="0 0 34 30" fill="none" xmlns="http://www.w3.org/2000/svg">
<g filter="url(#filter0_d_28_116)">
<path fill-rule="evenodd" clip-rule="evenodd" d="M23.2391 7.00759H17.3508C17.1419 7.00759 16.9725 7.17699 16.9725 7.38596V20.5551C16.9725 20.7641 17.1419 20.9335 17.3508 20.9335H20.4539C20.7309 20.9335 20.9966 21.0435 21.1925 21.2394C21.3883 21.4353 21.4984 21.7009 21.4984 21.9779C21.4984 22.2549 21.3883 22.5206 21.1925 22.7165C20.9966 22.9123 20.7309 23.0224 20.4539 23.0224H11.4021C11.1251 23.0224 10.8594 22.9123 10.6636 22.7165C10.4677 22.5206 10.3577 22.2549 10.3577 21.9779C10.3577 21.7009 10.4677 21.4353 10.6636 21.2394C10.8594 21.0435 11.1251 20.9335 11.4021 20.9335H14.5052C14.7142 20.9335 14.8836 20.7641 14.8836 20.5551V7.38596C14.8836 7.17699 14.7142 7.00759 14.5052 7.00759H8.61691C8.33991 7.00759 8.07425 6.89755 7.87838 6.70168C7.68251 6.50581 7.57247 6.24015 7.57247 5.96314C7.57247 5.68614 7.68251 5.42048 7.87838 5.22461C8.07425 5.02874 8.33991 4.9187 8.61691 4.9187H23.2391C23.5161 4.9187 23.7818 5.02874 23.9776 5.22461C24.1735 5.42048 24.2836 5.68614 24.2836 5.96314C24.2836 6.24015 24.1735 6.50581 23.9776 6.70168C23.7818 6.89755 23.5161 7.00759 23.2391 7.00759ZM7.08734 14.7375C7.07968 14.7528 7.07885 14.7706 7.08506 14.7866C7.23536 15.1623 7.49479 15.4844 7.82989 15.7113C8.16499 15.9381 8.56038 16.0594 8.96506 16.0594C9.36974 16.0594 9.76513 15.9381 10.1002 15.7113C10.4353 15.4844 10.6948 15.1623 10.8451 14.7866C10.8513 14.7706 10.8504 14.7528 10.8428 14.7375L9.30348 11.6589C9.16404 11.38 8.76607 11.38 8.62664 11.6589L7.08734 14.7375ZM8.96506 8.40018C8.32447 8.40018 7.73958 8.76225 7.4541 9.33321L5.06581 14.1084C4.97779 14.2844 4.92806 14.477 4.9199 14.6736C4.91174 14.8702 4.94533 15.0663 5.01846 15.2489L5.14379 15.5637C5.449 16.3273 5.97607 16.9819 6.65697 17.443C7.33786 17.9041 8.14133 18.1506 8.96367 18.1506C9.78601 18.1506 10.5895 17.9041 11.2704 17.443C11.9513 16.9819 12.4783 16.3273 12.7835 15.5637L12.9089 15.2489C12.982 15.0663 13.0156 14.8702 13.0074 14.6736C12.9993 14.477 12.9495 14.2844 12.8615 14.1084L10.476 9.33461C10.3362 9.05358 10.1207 8.81719 9.85369 8.65209C9.58672 8.48699 9.27895 8.39974 8.96506 8.40018ZM21.0132 14.7375C21.0056 14.7528 21.0048 14.7706 21.011 14.7866C21.1613 15.1623 21.4207 15.4844 21.7558 15.7113C22.0909 15.9381 22.4863 16.0594 22.891 16.0594C23.2956 16.0594 23.691 15.9381 24.0261 15.7113C24.3612 15.4844 24.6207 15.1623 24.771 14.7866C24.7772 14.7706 24.7763 14.7528 24.7687 14.7375L23.2294 11.6589C23.09 11.38 22.692 11.38 22.5525 11.6589L21.0132 14.7375ZM22.891 8.40018C22.2504 8.40018 21.6655 8.76225 21.38 9.33321L18.9917 14.1084C18.9037 14.2844 18.854 14.477 18.8458 14.6736C18.8376 14.8702 18.8712 15.0663 18.9444 15.2489L19.0697 15.5637C19.3749 16.3273 19.902 16.9819 20.5829 17.443C21.2638 17.9041 22.0672 18.1506 22.8896 18.1506C23.7119 18.1506 24.5154 17.9041 25.1963 17.443C25.8772 16.9819 26.4042 16.3273 26.7094 15.5637L26.8348 15.2489C26.9079 15.0663 26.9415 14.8702 26.9333 14.6736C26.9252 14.477 26.8755 14.2844 26.7874 14.1084L24.4005 9.336C24.261 9.05492 24.0458 8.81839 23.7791 8.65305C23.5123 8.48771 23.2048 8.40013 22.891 8.40018Z" fill="white"/>
</g>
<defs>
<filter id="filter0_d_28_116" x="-0.0001055" y="-0.0001055" width="33.367" height="29.4549" filterUnits="userSpaceOnUse" color-interpolation-filters="sRGB">
<feFlood flood-opacity="0" result="BackgroundImageFix"/>
<feColorMatrix in="SourceAlpha" type="matrix" values="0 0 0 0 0 0 0 0 0 0 0 0 0 0 0 0 0 0 127 0" result="hardAlpha"/>
<feOffset dx="0.756739" dy="0.756739"/>
<feGaussianBlur stdDeviation="2.83777"/>
<feComposite in2="hardAlpha" operator="out"/>
<feColorMatrix type="matrix" values="0 0 0 0 0 0 0 0 0 0 0 0 0 0 0 0 0 0 0.2 0"/>
<feBlend mode="normal" in2="BackgroundImageFix" result="effect1_dropShadow_28_116"/>
<feBlend mode="normal" in="SourceGraphic" in2="effect1_dropShadow_28_116" result="shape"/>
</filter>
</defs>
</svg>
